HIERARCHY
ROOT reference
{
  OFFSET -65.3212 -1.93545 -120.338
  CHANNELS 6 Xposition Yposition Zposition Zrotation Xrotation Yrotation
  JOINT Hips
  {
    OFFSET 0 78.7191 0
    CHANNELS 3 Zrotation Xrotation Yrotation
    JOINT Chest
    {
      OFFSET 0 8.7983 -4.7612
      CHANNELS 3 Zrotation Xrotation Yrotation
      JOINT Chest2
      {
        OFFSET 0 8.0291 0.4195
        CHANNELS 3 Zrotation Xrotation Yrotation
        JOINT Chest3
        {
          OFFSET 0 9.9351 -2.2114
          CHANNELS 3 Zrotation Xrotation Yrotation
          JOINT Neck
          {
            OFFSET 0 22.3885 -0.4656
            CHANNELS 3 Zrotation Xrotation Yrotation
            JOINT Head
            {
              OFFSET -0.0001 12.643 3.4389
              CHANNELS 3 Zrotation Xrotation Yrotation
              End Site
              {
                OFFSET 0.0001 17.6655 0.5274
              }
            }
          }
          JOINT LeftCollar
          {
            OFFSET 2.2603 21.606 7.4023
            CHANNELS 3 Zrotation Xrotation Yrotation
            JOINT LeftShoulder
            {
              OFFSET 13.5163 -1.1332 -5.0146
              CHANNELS 3 Zrotation Xrotation Yrotation
              JOINT LeftElbow
              {
                OFFSET -0.0995 -28.05 -0.2431
                CHANNELS 3 Zrotation Xrotation Yrotation
                JOINT LeftWrist
                {
                  OFFSET 0.0679 -23.3996 -0.1402
                  CHANNELS 3 Zrotation Xrotation Yrotation
                  JOINT LeftFinger1
                  {
                    OFFSET 0.7932 -9.069 2.5189
                    CHANNELS 3 Zrotation Xrotation Yrotation
                    JOINT LeftFinger11
                    {
                      OFFSET -0.8272 -3.3923 0.5977
                      CHANNELS 3 Zrotation Xrotation Yrotation
                      JOINT LeftFinger12
                      {
                        OFFSET -0.5649 -2.3158 0.4082
                        CHANNELS 3 Zrotation Xrotation Yrotation
                        End Site
                        {
                          OFFSET -0.4919 -1.6479 0.2673
                        }
                      }
                    }
                  }
                  JOINT LeftFinger2
                  {
                    OFFSET 0.9159 -9.2044 0.2193
                    CHANNELS 3 Zrotation Xrotation Yrotation
                    JOINT LeftFinger21
                    {
                      OFFSET 0.0117 -4.1944 -0.0248
                      CHANNELS 3 Zrotation Xrotation Yrotation
                      JOINT LeftFinger22
                      {
                        OFFSET 0.0071 -2.3249 -0.0142
                        CHANNELS 3 Zrotation Xrotation Yrotation
                        End Site
                        {
                          OFFSET -0.1475 -2.0882 0.0028
                        }
                      }
                    }
                  }
                  JOINT LeftFinger3
                  {
                    OFFSET 0.6113 -8.7231 -2.0637
                    CHANNELS 3 Zrotation Xrotation Yrotation
                    JOINT LeftFinger31
                    {
                      OFFSET -0.1927 -3.8059 -0.2383
                      CHANNELS 3 Zrotation Xrotation Yrotation
                      JOINT LeftFinger32
                      {
                        OFFSET -0.1091 -2.1688 -0.1362
                        CHANNELS 3 Zrotation Xrotation Yrotation
                        End Site
                        {
                          OFFSET -0.2358 -1.9176 -0.0906
                        }
                      }
                    }
                  }
                  JOINT LeftFinger4
                  {
                    OFFSET -0.6151 -8.0947 -3.5641
                    CHANNELS 3 Zrotation Xrotation Yrotation
                    JOINT LeftFinger41
                    {
                      OFFSET -0.4882 -2.341 -0.6462
                      CHANNELS 3 Zrotation Xrotation Yrotation
                      JOINT LeftFinger42
                      {
                        OFFSET -0.3575 -1.7167 -0.4742
                        CHANNELS 3 Zrotation Xrotation Yrotation
                        End Site
                        {
                          OFFSET -0.4187 -1.5237 -0.3496
                        }
                      }
                    }
                  }
                  JOINT LeftFinger0
                  {
                    OFFSET -1.42 -1.8761 1.4223
                    CHANNELS 3 Zrotation Xrotation Yrotation
                    JOINT LeftFinger01
                    {
                      OFFSET -1.1471 -3.4929 2.6334
                      CHANNELS 3 Zrotation Xrotation Yrotation
                      JOINT LeftFinger02
                      {
                        OFFSET -0.823 -2.3 1.6571
                        CHANNELS 3 Zrotation Xrotation Yrotation
                        End Site
                        {
                          OFFSET -0.5822 -1.6914 1.1582
                        }
                      }
                    }
                  }
                }
              }
            }
          }
          JOINT RightCollar
          {
            OFFSET -2.2603 21.606 7.4023
            CHANNELS 3 Zrotation Xrotation Yrotation
            JOINT RightShoulder
            {
              OFFSET -13.5187 -1.1334 -5.0155
              CHANNELS 3 Zrotation Xrotation Yrotation
              JOINT RightElbow
              {
                OFFSET 0.0994 -28.0499 -0.2431
                CHANNELS 3 Zrotation Xrotation Yrotation
                JOINT RightWrist
                {
                  OFFSET -0.0679 -23.3996 -0.1402
                  CHANNELS 3 Zrotation Xrotation Yrotation
                  JOINT RightFinger1
                  {
                    OFFSET -0.7932 -9.0691 2.5189
                    CHANNELS 3 Zrotation Xrotation Yrotation
                    JOINT RightFinger11
                    {
                      OFFSET 0.8272 -3.3923 0.5977
                      CHANNELS 3 Zrotation Xrotation Yrotation
                      JOINT RightFinger12
                      {
                        OFFSET 0.565 -2.3158 0.4082
                        CHANNELS 3 Zrotation Xrotation Yrotation
                        End Site
                        {
                          OFFSET 0.4919 -1.6479 0.2673
                        }
                      }
                    }
                  }
                  JOINT RightFinger2
                  {
                    OFFSET -0.916 -9.2044 0.2193
                    CHANNELS 3 Zrotation Xrotation Yrotation
                    JOINT RightFinger21
                    {
                      OFFSET -0.0117 -4.1944 -0.0248
                      CHANNELS 3 Zrotation Xrotation Yrotation
                      JOINT RightFinger22
                      {
                        OFFSET -0.0071 -2.3249 -0.0142
                        CHANNELS 3 Zrotation Xrotation Yrotation
                        End Site
                        {
                          OFFSET 0.1475 -2.0882 0.0028
                        }
                      }
                    }
                  }
                  JOINT RightFinger3
                  {
                    OFFSET -0.6113 -8.7231 -2.0637
                    CHANNELS 3 Zrotation Xrotation Yrotation
                    JOINT RightFinger31
                    {
                      OFFSET 0.1927 -3.8059 -0.2383
                      CHANNELS 3 Zrotation Xrotation Yrotation
                      JOINT RightFinger32
                      {
                        OFFSET 0.1091 -2.1688 -0.1362
                        CHANNELS 3 Zrotation Xrotation Yrotation
                        End Site
                        {
                          OFFSET 0.2358 -1.9176 -0.0906
                        }
                      }
                    }
                  }
                  JOINT RightFinger4
                  {
                    OFFSET 0.6151 -8.0947 -3.564
                    CHANNELS 3 Zrotation Xrotation Yrotation
                    JOINT RightFinger41
                    {
                      OFFSET 0.4882 -2.341 -0.6462
                      CHANNELS 3 Zrotation Xrotation Yrotation
                      JOINT RightFinger42
                      {
                        OFFSET 0.3574 -1.7166 -0.4742
                        CHANNELS 3 Zrotation Xrotation Yrotation
                        End Site
                        {
                          OFFSET 0.4187 -1.5237 -0.3496
                        }
                      }
                    }
                  }
                  JOINT RightFinger0
                  {
                    OFFSET 1.4199 -1.8761 1.4221
                    CHANNELS 3 Zrotation Xrotation Yrotation
                    JOINT RightFinger01
                    {
                      OFFSET 1.1472 -3.4929 2.6336
                      CHANNELS 3 Zrotation Xrotation Yrotation
                      JOINT RightFinger02
                      {
                        OFFSET 0.8229 -2.3 1.6571
                        CHANNELS 3 Zrotation Xrotation Yrotation
                        End Site
                        {
                          OFFSET 0.5822 -1.6914 1.1582
                        }
                      }
                    }
                  }
                }
              }
            }
          }
        }
      }
    }
    JOINT RightHip
    {
      OFFSET -9.412 3.9771 -0.7758
      CHANNELS 3 Zrotation Xrotation Yrotation
      JOINT RightKnee
      {
        OFFSET -0.7531 -40.938 0
        CHANNELS 3 Zrotation Xrotation Yrotation
        JOINT RightAnkle
        {
          OFFSET 0 -40.1986 0
          CHANNELS 3 Zrotation Xrotation Yrotation
          JOINT RightToe
          {
            OFFSET 0 -4.4182 9.239
            CHANNELS 3 Zrotation Xrotation Yrotation
            End Site
            {
              OFFSET 0 0 6.1981
            }
          }
        }
      }
    }
    JOINT LeftHip
    {
      OFFSET 9.4119 3.9773 -0.7758
      CHANNELS 3 Zrotation Xrotation Yrotation
      JOINT LeftKnee
      {
        OFFSET 0.7532 -40.9383 0
        CHANNELS 3 Zrotation Xrotation Yrotation
        JOINT LeftAnkle
        {
          OFFSET 0 -40.1986 0
          CHANNELS 3 Zrotation Xrotation Yrotation
          JOINT LeftToe
          {
            OFFSET 0 -4.4182 9.239
            CHANNELS 3 Zrotation Xrotation Yrotation
            End Site
            {
              OFFSET 0 0 6.1981
            }
          }
        }
      }
    }
  }
}
MOTION
Frames:	4
Frame Time:	0.0333333
21.4526 -65.5352 -49.243 0 0 -0 12.8006 10.1769 -55.1353 -0.153255 -2.78442 1.52609 -0.232528 -5.57194 3.05017 -0.232529 -5.57196 3.05016 0.173838 0.714245 -4.39525 6.57727 -0.317207 -2.25098 2.96039 -2.02014 -30.2995 43.4335 -43.8717 23.0182 -4.49578 -59.5003 15.8794 5.78113 7.85715 22.7988 -3.03454 13.5333 -2.18208 -35.3167 20.4568 4.66824 -36.3891 20.9688 4.99573 -1.0037 1.77404 1.1735 -42.7842 24.7472 5.54519 -8.91327 5.6287 -0.442362 -6.582 6.72807 5.06493 -13.8828 9.6823 -0.672522 -15.2684 10.6411 -0.610639 13.8075 -0.976069 8.79337 -17.7367 12.2751 -1.06119 -8.75064 6.03027 -1.00087 -11.5752 -16.7454 -49.4479 -4.53235 0.27414 0.312999 8.53295 10.6972 -3.07914 -7.7605 -1.36619 37.8347 -84.9629 -41.1488 -53.0942 40.7656 -49.8429 12.8806 -34.7608 18.1718 -42.7194 11.6478 14.2792 0.992714 44.2764 13.1569 -6.11048 45.4054 13.4037 -6.38646 6.63247 3.30236 -1.26752 52.3752 15.6204 -6.40194 15.3504 5.19878 -0.333541 12.9351 7.01932 -5.55431 21.116 8.14441 -0.317276 22.7006 8.7351 -0.460746 -8.95571 3.95864 -6.76161 25.5475 9.66343 0.0104577 15.2476 5.7932 0.529018 9.91519 -19.9007 48.0804 1.41322 -0.442779 -1.52297 -7.19738 14.5369 5.6046 -43.3899 -8.29966 -6.15556 169.677 25.273 -152.267 -2.43105 -6.37318 45.8126 -13.1934 28.2729 -7.08624 50.4872 -13.9882 24.3775 179.539 26.8813 178.36 8.11914 -12.2172 -41.9331 9.79681 54.2877 17.6989 
21.5477 -65.519 -49.3084 0 0 -0 12.9621 10.3618 -55.0446 -0.148939 -2.87929 1.50755 -0.222286 -5.76149 3.01335 -0.222288 -5.76151 3.01336 0.121684 0.167521 -4.37561 6.81987 -0.243974 -2.33427 2.91178 -1.99336 -30.3115 43.1682 -43.692 22.7793 -4.74206 -59.6905 15.6096 5.83509 7.94917 22.8336 -3.03453 13.5333 -2.18208 -35.3167 20.4568 4.66825 -36.3891 20.9688 4.99573 -1.0037 1.77406 1.17351 -42.7841 24.7472 5.54516 -8.91327 5.62873 -0.442356 -6.58201 6.72807 5.06492 -13.8828 9.68231 -0.672493 -15.2684 10.6411 -0.610652 13.8075 -0.976062 8.79336 -17.7367 12.2751 -1.06119 -8.75062 6.03025 -1.00085 -11.5752 -16.7454 -49.4479 -4.53233 0.274149 0.313002 8.53293 10.6972 -3.07914 -7.69278 -1.34388 37.727 -84.6091 -41.0566 -52.8855 41.1808 -49.9424 13.3585 -34.7456 18.284 -42.8059 11.6478 14.2792 0.992715 44.2763 13.1569 -6.1105 45.4054 13.4037 -6.38644 6.63247 3.30236 -1.26751 52.3752 15.6204 -6.40192 15.3503 5.19879 -0.333539 12.9351 7.01934 -5.5543 21.116 8.14439 -0.317274 22.7006 8.7351 -0.460728 -8.95572 3.95865 -6.76162 25.5475 9.6634 0.010459 15.2476 5.7932 0.529036 9.91518 -19.9007 48.0804 1.41321 -0.442787 -1.52295 -7.19735 14.5369 5.60458 -43.2026 -8.41922 -6.32412 169.657 25.2609 -152.151 -2.27093 -6.79929 45.3992 -13.5443 28.5014 -7.1084 50.4285 -14.33 24.4961 179.56 26.7353 178.201 7.94476 -12.3631 -41.6881 9.77041 54.2855 17.5293 
21.6182 -65.4615 -49.3744 0 0 -0 13.1312 10.6964 -54.925 -0.118766 -3.00547 1.4785 -0.160056 -6.01302 2.95687 -0.160055 -6.01301 2.95688 0.067203 -0.41602 -4.37102 7.03007 -0.119349 -2.40795 2.87939 -1.96578 -30.3363 42.7493 -43.3187 22.4369 -5.1275 -60.128 15.3384 5.88081 8.06485 22.7956 -3.03453 13.5333 -2.18207 -35.3167 20.4568 4.66826 -36.3891 20.9688 4.99573 -1.00369 1.77405 1.17349 -42.7842 24.7472 5.54517 -8.91329 5.62873 -0.442359 -6.58198 6.7281 5.06491 -13.8829 9.68231 -0.672507 -15.2684 10.641 -0.610652 13.8075 -0.976047 8.79336 -17.7367 12.2751 -1.06119 -8.75063 6.03024 -1.00085 -11.5752 -16.7453 -49.4479 -4.53234 0.274103 0.312987 8.53294 10.6972 -3.07913 -7.51328 -1.3252 37.5374 -84.1243 -40.9567 -52.4681 41.8015 -50.1734 14.1102 -34.6738 18.4841 -42.9697 11.6478 14.2793 0.992724 44.2764 13.1569 -6.11047 45.4054 13.4037 -6.38645 6.63248 3.30236 -1.26751 52.3752 15.6204 -6.40193 15.3503 5.19878 -0.333545 12.9351 7.01933 -5.5543 21.1159 8.14439 -0.317281 22.7006 8.73509 -0.460731 -8.9557 3.95865 -6.76159 25.5475 9.66342 0.0104703 15.2476 5.79319 0.529034 9.91519 -19.9007 48.0803 1.41321 -0.442797 -1.52295 -7.19736 14.537 5.60459 -42.8356 -8.62653 -6.67164 169.605 25.3255 -152.045 -2.01373 -7.18333 44.828 -14.054 28.7817 -7.15028 50.4768 -14.7638 24.684 179.582 26.6285 178.032 7.78169 -12.523 -41.3621 9.76872 54.3027 17.4301 
21.6479 -65.3631 -49.4234 0 0 -0 13.2662 11.1198 -54.7872 -0.0667744 -3.14282 1.44393 -0.0542016 -6.28632 2.89072 -0.0542013 -6.28633 2.89073 0.0104129 -0.969606 -4.38872 7.22256 0.00520572 -2.46646 2.89181 -1.93907 -30.3665 42.2226 -42.8066 22.0468 -5.66024 -60.7214 15.0488 5.91237 8.1491 22.706 -3.03455 13.5333 -2.18203 -35.3167 20.4568 4.66826 -36.3891 20.9688 4.99572 -1.00369 1.77408 1.17352 -42.7841 24.7472 5.54515 -8.91329 5.62873 -0.442351 -6.582 6.72808 5.06493 -13.8829 9.68232 -0.672492 -15.2684 10.6411 -0.61064 13.8075 -0.976049 8.79338 -17.7367 12.2751 -1.06119 -8.75063 6.03025 -1.00086 -11.5752 -16.7453 -49.448 -4.53232 0.274134 0.312998 8.53292 10.6973 -3.07913 -7.25559 -1.3105 37.2879 -83.5587 -40.8556 -51.9218 42.5946 -50.4694 15.0485 -34.5714 18.7059 -43.1629 11.6478 14.2792 0.992731 44.2764 13.1569 -6.11048 45.4054 13.4037 -6.38645 6.63247 3.30237 -1.2675 52.3752 15.6204 -6.40192 15.3504 5.19878 -0.333542 12.9351 7.01934 -5.55428 21.116 8.14441 -0.317288 22.7006 8.73509 -0.460725 -8.95572 3.95863 -6.76155 25.5475 9.66342 0.0104738 15.2476 5.79319 0.529034 9.9152 -19.9007 48.0804 1.41321 -0.442832 -1.52294 -7.19738 14.5369 5.6046 -42.332 -8.87996 -7.12476 169.522 25.4795 -151.97 -1.7317 -7.48972 44.1768 -14.5979 29.0605 -7.19254 50.6051 -15.2165 24.909 179.603 26.5859 177.878 7.6373 -12.6505 -41.0096 9.76707 54.3198 17.3308 
